<?xml version="1.0" standalone="no"?><!DOCTYPE svg PUBLIC "-//W3C//DTD SVG 1.1//EN" "http://www.w3.org/Graphics/SVG/1.1/DTD/svg11.dtd"><svg t="1576773750723" class="icon" viewBox="0 0 1024 1024" version="1.1" xmlns="http://www.w3.org/2000/svg" p-id="1375" xmlns:xlink="http://www.w3.org/1999/xlink" width="200" height="200"><defs><style type="text/css"></style></defs><path d="M512 512m-512 0a512 512 0 1 0 1024 0 512 512 0 1 0-1024 0Z" fill="#26C6DA" p-id="1376"></path><path d="M688.9472 464.1792H340.1728c-7.2704 0-12.6976-3.2768-11.264-6.656l39.7312-72.704c1.024-2.6624 5.7344-4.5056 11.264-4.5056h269.7216c5.4272 0 10.24 1.8432 11.264 4.5056l39.3216 72.6016c1.4336 3.3792-3.8912 6.7584-11.264 6.7584z" fill="#FFFFFF" p-id="1377"></path><path d="M365.8752 464.1792m-37.1712 0a37.1712 37.1712 0 1 0 74.3424 0 37.1712 37.1712 0 1 0-74.3424 0Z" fill="#FFFFFF" p-id="1378"></path><path d="M440.2176 464.1792m-37.1712 0a37.1712 37.1712 0 1 0 74.3424 0 37.1712 37.1712 0 1 0-74.3424 0Z" fill="#FFFFFF" p-id="1379"></path><path d="M514.56 464.1792m-37.1712 0a37.1712 37.1712 0 1 0 74.3424 0 37.1712 37.1712 0 1 0-74.3424 0Z" fill="#FFFFFF" p-id="1380"></path><path d="M588.9024 464.1792m-37.1712 0a37.1712 37.1712 0 1 0 74.3424 0 37.1712 37.1712 0 1 0-74.3424 0Z" fill="#FFFFFF" p-id="1381"></path><path d="M663.2448 464.1792m-37.1712 0a37.1712 37.1712 0 1 0 74.3424 0 37.1712 37.1712 0 1 0-74.3424 0Z" fill="#FFFFFF" p-id="1382"></path><path d="M668.7744 531.6608A37.7856 37.7856 0 0 1 634.88 512.9216h-6.8608a39.7312 39.7312 0 0 1-67.4816 0h-6.8608a39.7312 39.7312 0 0 1-67.4816 0h-6.8608a39.7312 39.7312 0 0 1-67.4816 0h-6.8608a37.7856 37.7856 0 0 1-33.6896 18.7392 41.984 41.984 0 0 1-15.0528-2.7648V714.752a8.9088 8.9088 0 0 0 9.5232 8.192h98.7136v-38.2976A50.0736 50.0736 0 0 1 514.56 634.88a50.0736 50.0736 0 0 1 50.0736 50.0736v37.9904h98.7136a8.9088 8.9088 0 0 0 9.5232-8.192V531.3536c-1.4336 0.1024-2.6624 0.3072-4.096 0.3072z" fill="#FFFFFF" p-id="1383"></path><path d="M375.3984 341.504m9.5232 0l259.1744 0q9.5232 0 9.5232 9.5232l0-0.1024q0 9.5232-9.5232 9.5232l-259.1744 0q-9.5232 0-9.5232-9.5232l0 0.1024q0-9.5232 9.5232-9.5232Z" fill="#FFFFFF" p-id="1384"></path></svg>